<svg preserveAspectRatio="none" width="100%" height="100%" overflow="visible" style="display: block;" viewBox="0 0 22 22" fill="none" xmlns="http://www.w3.org/2000/svg">
<g id="Icon">
<path id="Vector" d="M18.3333 1.83333H3.66667C2.65414 1.83333 1.83333 2.65414 1.83333 3.66667V7.33333C1.83333 8.34586 2.65414 9.16667 3.66667 9.16667H18.3333C19.3459 9.16667 20.1667 8.34586 20.1667 7.33333V3.66667C20.1667 2.65414 19.3459 1.83333 18.3333 1.83333Z" stroke="var(--stroke-0, #D63163)" stroke-width="1.60417" stroke-linecap="round" stroke-linejoin="round"/>
<path id="Vector_2" d="M18.3333 12.8333H3.66667C2.65414 12.8333 1.83333 13.6541 1.83333 14.6667V18.3333C1.83333 19.3459 2.65414 20.1667 3.66667 20.1667H18.3333C19.3459 20.1667 20.1667 19.3459 20.1667 18.3333V14.6667C20.1667 13.6541 19.3459 12.8333 18.3333 12.8333Z" stroke="var(--stroke-0, #D63163)" stroke-width="1.60417" stroke-linecap="round" stroke-linejoin="round"/>
<path id="Vector_3" d="M5.5 5.5H5.51" stroke="var(--stroke-0, #D63163)" stroke-width="1.60417" stroke-linecap="round" stroke-linejoin="round"/>
<path id="Vector_4" d="M5.5 16.5H5.51" stroke="var(--stroke-0, #D63163)" stroke-width="1.60417" stroke-linecap="round" stroke-linejoin="round"/>
</g>
</svg>
