<svg preserveAspectRatio="none" width="100%" height="100%" overflow="visible" style="display: block;" viewBox="0 0 112.428 13.0035" fill="none" xmlns="http://www.w3.org/2000/svg">
<g id="logotype">
<path d="M79.2213 3.53451C79.8047 2.80925 80.752 2.44662 82.062 2.44662C82.6517 2.44662 83.1954 2.52131 83.6948 2.67119C84.1935 2.82133 84.6353 2.99786 85.0205 3.20156L85.8321 0.953854C85.7355 0.894002 85.5768 0.809757 85.3541 0.701873C85.1317 0.593738 84.8489 0.488872 84.5059 0.387275C84.1632 0.285175 83.7546 0.195398 83.2797 0.117188C82.8045 0.039482 82.2726 0 81.6834 0C80.8176 0 80.003 0.144348 79.2395 0.43229C78.4758 0.71998 77.8117 1.14246 77.2465 1.69999C76.6808 2.25726 76.2364 2.93826 75.9121 3.74123C75.5872 4.5447 75.4248 5.46787 75.4248 6.51125C75.4248 7.54231 75.5716 8.4597 75.8667 9.26242C76.1613 10.0656 76.5794 10.7434 77.1199 11.2946C77.6612 11.8463 78.3134 12.2656 79.0773 12.5538C79.8405 12.8412 80.6915 12.9853 81.6292 12.9853C82.7236 12.9853 83.6436 12.9098 84.3889 12.7602C85.1347 12.6106 85.6754 12.47 86.0124 12.338V6.1695H83.1985V10.5035C83.0303 10.5397 82.8348 10.5636 82.6126 10.5754C82.3899 10.5872 82.122 10.5932 81.8095 10.5932C81.2322 10.5932 80.7276 10.4944 80.2948 10.2967C79.8617 10.0988 79.5013 9.81994 79.2123 9.46008C78.924 9.10021 78.7076 8.6717 78.5631 8.17452C78.4188 7.6771 78.3469 7.12209 78.3469 6.51125C78.3469 5.25185 78.6382 4.26003 79.2213 3.53451Z" fill="var(--fill-0, #18181A)"/>
<path d="M34.5235 10.5123C34.265 10.5787 33.9374 10.6114 33.5407 10.6114C32.7472 10.6114 32.0766 10.5304 31.5298 10.3682C30.9822 10.2068 30.5222 10.0242 30.1499 9.82L29.356 12.0499C29.5244 12.1462 29.7318 12.2478 29.9782 12.3559C30.2248 12.4638 30.5197 12.5656 30.8622 12.6614C31.2049 12.7573 31.5986 12.838 32.0435 12.9044C32.4884 12.9703 32.9876 13.0035 33.5407 13.0035C35.1878 13.0035 36.4204 12.6826 37.2381 12.0408C38.0557 11.3995 38.4648 10.4972 38.4648 9.33415C38.4648 8.73513 38.3864 8.22589 38.2305 7.80592C38.0739 7.3862 37.8363 7.0203 37.518 6.70872C37.1992 6.39714 36.7992 6.12429 36.3185 5.89042C35.8373 5.65654 35.2721 5.4199 34.6231 5.17974C34.3102 5.07186 34.0244 4.96724 33.7664 4.86514C33.5076 4.76355 33.2791 4.64937 33.0806 4.52364C32.8824 4.39765 32.7288 4.25682 32.6208 4.1009C32.5126 3.94549 32.4582 3.75336 32.4582 3.52527C32.4582 3.14202 32.6057 2.8571 32.9003 2.67125C33.1949 2.48566 33.6789 2.39211 34.3525 2.39211C34.9535 2.39211 35.4676 2.46152 35.8945 2.59908C36.321 2.73714 36.7089 2.89607 37.058 3.07588L37.8694 0.863886C37.4726 0.648118 36.9675 0.449954 36.3546 0.270148C35.7412 0.0905929 35.0136 6.10352e-05 34.1719 6.10352e-05C33.4622 6.10352e-05 32.8251 0.0875752 32.2599 0.261095C31.6947 0.435368 31.214 0.683577 30.8173 1.00748C30.4203 1.33163 30.1139 1.72394 29.8972 2.18565C29.6808 2.64711 29.5726 3.16566 29.5726 3.74129C29.5726 4.31692 29.6748 4.80529 29.8793 5.20665C30.0836 5.60876 30.3484 5.95052 30.6728 6.23217C30.9974 6.51408 31.3641 6.74795 31.7729 6.93354C32.1817 7.11913 32.5906 7.28436 32.9997 7.4277C33.9374 7.74003 34.5987 8.03049 34.9836 8.30058C35.3682 8.56991 35.5609 8.90915 35.5609 9.31654C35.5609 9.50842 35.5309 9.68244 35.4706 9.83811C35.4103 9.99402 35.3018 10.1288 35.1457 10.2422C34.9896 10.3569 34.782 10.4467 34.5235 10.5123Z" fill="var(--fill-0, #18181A)"/>
<path fill-rule="evenodd" clip-rule="evenodd" d="M26.4652 6.51112C26.4652 7.57789 26.3055 8.51641 25.9875 9.32516C25.6684 10.1347 25.2324 10.8121 24.6795 11.3573C24.1264 11.9033 23.4679 12.3137 22.7044 12.5893C21.941 12.8655 21.12 13.0033 20.2426 13.0033C19.3886 13.0033 18.5833 12.8655 17.8257 12.5893C17.068 12.3137 16.4065 11.9033 15.8415 11.3573C15.276 10.8121 14.8317 10.1347 14.5068 9.32516C14.1822 8.51641 14.0195 7.57789 14.0195 6.51112C14.0195 5.44385 14.188 4.50559 14.5247 3.69659C14.8612 2.88708 15.3154 2.20658 15.8867 1.65509C16.4574 1.1036 17.119 0.690176 17.8708 0.414305C18.6219 0.138183 19.4128 0.00012207 20.2426 0.00012207C21.0961 0.00012207 21.9016 0.138183 22.6595 0.414305C23.4169 0.690176 24.0782 1.1036 24.6434 1.65509C25.2084 2.20658 25.6535 2.88708 25.9781 3.69659C26.303 4.50559 26.4652 5.44385 26.4652 6.51112ZM16.9231 6.51113C16.9231 7.12222 16.998 7.67371 17.1483 8.16535C17.2986 8.65724 17.5153 9.07972 17.798 9.4333C18.08 9.78738 18.426 10.0597 18.8351 10.2514C19.2437 10.4437 19.7125 10.5398 20.2419 10.5398C20.7587 10.5398 21.2248 10.4437 21.6399 10.2514C22.0543 10.0597 22.4034 9.78738 22.6856 9.4333C22.9681 9.07972 23.185 8.65724 23.3353 8.16535C23.4856 7.67371 23.5608 7.12222 23.5608 6.51113C23.5608 5.89929 23.4856 5.34478 23.3353 4.8471C23.185 4.34968 22.9681 3.92443 22.6856 3.57035C22.4034 3.21678 22.0543 2.94367 21.6399 2.7523C21.2248 2.56042 20.7587 2.46461 20.2419 2.46461C19.7125 2.46461 19.2437 2.56344 18.8351 2.7611C18.426 2.95901 18.08 3.23488 17.798 3.58871C17.5153 3.94229 17.2986 4.36779 17.1483 4.86521C16.998 5.36314 16.9231 5.91161 16.9231 6.51113Z" fill="var(--fill-0, #18181A)"/>
<path d="M7.53962 0.288391H10.3535V12.7514H7.53962V7.46405H2.81393V12.7514H0V0.288391H2.81393V5.05389H7.53962V0.288391Z" fill="var(--fill-0, #18181A)"/>
<path d="M50.8609 0.288513V2.68057H47.0911V12.7515H44.2774V2.68057H40.5073V0.288513H50.8609Z" fill="var(--fill-0, #18181A)"/>
<path d="M56.7998 12.7517H53.9858V0.288513H56.7998V12.7517Z" fill="var(--fill-0, #18181A)"/>
<path d="M69.3956 12.7515C68.59 11.3249 67.7184 9.91633 66.7802 8.52516C65.8419 7.13423 64.8439 5.82152 63.7862 4.58651V12.7515H61.0083V0.288513H63.2989C63.6954 0.683836 64.1345 1.16944 64.6157 1.74507C65.0966 2.3207 65.5862 2.93531 66.0856 3.58865C66.5844 4.24199 67.0806 4.91947 67.5736 5.62059C68.0664 6.32196 68.5295 6.99617 68.9626 7.64373V0.288513H71.7583V12.7515H69.3956Z" fill="var(--fill-0, #18181A)"/>
<path d="M89.9497 12.7515V0.288513H98.391V2.64435H92.7634V5.08997H97.7597V7.39225H92.7634V10.3956H98.8061V12.7515H89.9497Z" fill="var(--fill-0, #18181A)"/>
<path fill-rule="evenodd" clip-rule="evenodd" d="M110.174 1.14246C109.176 0.476801 107.739 0.144348 105.863 0.144348C105.346 0.144348 104.76 0.168239 104.104 0.216522C103.449 0.264051 102.815 0.348548 102.202 0.467748V12.7514H105.015V8.20093H106.404C106.645 8.48912 106.887 8.80976 107.129 9.16384C107.369 9.51741 107.615 9.89161 107.862 10.2874C108.109 10.6833 108.35 11.0912 108.586 11.5106C108.821 11.9303 109.053 12.3438 109.283 12.7514H112.428C112.212 12.296 111.977 11.8315 111.725 11.3575C111.473 10.8842 111.211 10.4288 110.941 9.9912C110.67 9.55363 110.396 9.13391 110.12 8.73205C109.843 8.33044 109.579 7.97385 109.326 7.66176C110.084 7.35043 110.664 6.92141 111.067 6.37621C111.47 5.83076 111.671 5.11983 111.671 4.24494C111.671 2.84195 111.172 1.80787 110.174 1.14246ZM105.474 2.55426C105.637 2.54244 105.82 2.5364 106.024 2.5364C106.926 2.5364 107.608 2.66541 108.071 2.92267C108.534 3.18119 108.765 3.61524 108.765 4.22683C108.765 4.86257 108.537 5.31246 108.08 5.57576C107.623 5.83981 106.866 5.97108 105.808 5.97108H105.014V2.59022C105.159 2.57865 105.312 2.56658 105.474 2.55426Z" fill="var(--fill-0, #18181A)"/>
</g>
</svg>
